<?xml version="1.0" encoding="utf-8"?>
<!-- Generator: Adobe Illustrator 19.0.0, SVG Export Plug-In . SVG Version: 6.00 Build 0)  -->
<svg version="1.1" id="Capa_1" xmlns="http://www.w3.org/2000/svg" xmlns:xlink="http://www.w3.org/1999/xlink" x="0px" y="0px"
	 viewBox="0 0 595.3 841.9" style="enable-background:new 0 0 595.3 841.9;" xml:space="preserve">
	<g id="XMLID_1_">
		<g id="XMLID_13_">
			<path id="XMLID_17_" d="M25.1,261.1c-1.2,76.6,3.5,153.2,14,229.1c0.4,3.2,5.3,1.8,4.8-1.3c-10.4-75.4-15-151.7-13.8-227.8
				C30.2,257.9,25.2,257.9,25.1,261.1L25.1,261.1z"/>
		</g>
	</g>
	<g id="XMLID_2_">
		<g id="XMLID_20_">
			<path id="XMLID_24_" d="M31.6,263c55-40.8,122.1-58.5,187.4-75.4c3.1-0.8,1.8-5.6-1.3-4.8c-65.6,17-133.3,34.8-188.6,75.9
				C26.5,260.5,29,264.9,31.6,263L31.6,263z"/>
		</g>
	</g>
	<g id="XMLID_3_">
		<g id="XMLID_27_">
			<path id="XMLID_31_" d="M32.1,386.4c22.2-15.3,47.3-25.5,72.5-34.6c26.3-9.5,53.4-20.5,81.8-19.6c3.2,0.1,3.2-4.9,0-5
				c-28.9-0.9-56.4,10.2-83.1,19.8c-25.7,9.3-51.2,19.6-73.7,35.1C26.9,383.9,29.4,388.3,32.1,386.4L32.1,386.4z"/>
		</g>
	</g>
	<g id="XMLID_4_">
		<g id="XMLID_34_">
			<path id="XMLID_38_" d="M205.4,381.1c0,35.1,0,70.2,0,105.3c0,3.2,5,3.2,5,0c0-2.7,0-5.5,0-8.2c0-3.2-5-3.2-5,0c0,2.7,0,5.5,0,8.2
				c0,3.2,5,3.2,5,0c0-35.1,0-70.2,0-105.3C210.4,377.9,205.4,377.9,205.4,381.1L205.4,381.1z"/>
		</g>
	</g>
	<g id="XMLID_5_">
		<g id="XMLID_41_">
			<path id="XMLID_45_" d="M293.3,327.9c-20,24.7-34.6,53.6-42.4,84.4c-1.9,7.7-3.5,15.5-4.5,23.4c-0.9,6.8-2.4,14.5-0.8,21.3
				c3.7,15.2,21.1,13,31.5,6.8c15.6-9.4,29.1-22.7,40.2-37.1c1.9-2.6-2.4-5.1-4.3-2.5c-10.9,14.3-25.2,28.9-41.4,37.1
				c-9.4,4.8-21,3.2-21.6-9.2c-0.4-8.6,1.4-17.7,3-26c6.6-34.5,21.7-67.2,43.8-94.5C298.8,329,295.3,325.4,293.3,327.9L293.3,327.9z"
				/>
		</g>
	</g>
	<g id="XMLID_6_">
		<g id="XMLID_48_">
			<path id="XMLID_52_" d="M290.9,406.7c9.3-6.2,19.2-11.6,29.6-15.7c2.4-1,4.9-2,7.4-2.7c2.6-0.8,3.1-1.2,5.2,1.1
				c1.9,2.1,1.8,2.4,1.9,4.9c0.4,6.3,0.7,12.6,0.9,18.9c1,24.5,1.2,49.1,0.7,73.7c-0.1,3.2,4.9,3.2,5,0c0.6-29.9,0.1-59.7-1.5-89.6
				c-0.2-4.3,0.5-10.8-3.8-13.6c-4-2.6-9.2-0.4-13.2,1c-12.3,4.5-24,10.4-34.9,17.7C285.7,404.2,288.2,408.5,290.9,406.7L290.9,406.7
				z"/>
		</g>
	</g>
	<g id="XMLID_7_">
		<g id="XMLID_55_">
			<path id="XMLID_59_" d="M328.3,175.1c10.7,71.2,25,141.9,42.9,211.6c5.1,19.7,10.4,39.3,16.1,58.9c1.6-0.4,3.2-0.9,4.8-1.3
				c-6.4-16.7-7.8-34.5-7.8-52.2c-0.1-14.9-2-34,7.2-46.8c4.8-6.7,12.4-10.1,20.1-12.1c3.4-0.9,6.9-1.5,10.5-2.1
				c4.3-0.7,10.8-2.4,14.7,0c6.6,4,5,16.9,5.1,23.4c0.3,9.5,0.5,19,0.6,28.5c0.3,21.3,0.2,42.6-0.2,63.9c-0.1,3.2,4.9,3.2,5,0
				c0.4-22.3,0.5-44.5,0.1-66.8c-0.2-10.8-0.4-21.6-0.8-32.4c-0.2-6.8-0.2-15.3-6.1-19.9c-6.1-4.8-15.3-2.3-22.2-1.1
				c-8,1.3-16.2,3.4-23,8c-14.5,9.9-15.9,27.7-16.1,43.7c-0.3,22.7-0.3,45.8,7.9,67.3c1.1,2.9,5.7,1.8,4.8-1.3
				C372.2,375.1,355.8,304.9,343,234c-3.6-20-6.9-40.1-9.9-60.2C332.6,170.6,327.8,171.9,328.3,175.1L328.3,175.1z"/>
		</g>
	</g>
	<g id="XMLID_9_">
		<g id="XMLID_62_">
			<path id="XMLID_66_" d="M482.5,125.5c6,94.5,16.2,188.7,30.6,282.3c4.1,26.6,8.5,53.1,13.3,79.6c0.6,3.2,5.4,1.8,4.8-1.3
				c-16.7-93.1-29.4-186.9-37.7-281c-2.3-26.5-4.3-52.9-6-79.5C487.3,122.3,482.3,122.3,482.5,125.5L482.5,125.5z"/>
		</g>
	</g>
	<g id="XMLID_11_">
		<g id="XMLID_69_">
			<path id="XMLID_73_" d="M475.9,265.7c23.2-8.4,47-14.8,71.2-19.3c3.2-0.6,1.8-5.4-1.3-4.8c-24.2,4.5-48,10.9-71.2,19.3
				C471.6,262,472.9,266.8,475.9,265.7L475.9,265.7z"/>
		</g>
	</g>
	<g id="XMLID_18_">
		<g id="XMLID_76_">
			<path id="XMLID_80_" d="M69.9,591.1c-1.7,75.7-0.3,151.5,4,227.1c0.2,3.2,5.2,3.2,5,0c-4.3-75.6-5.7-151.4-4-227.1
				C75,587.9,70,587.9,69.9,591.1L69.9,591.1z"/>
		</g>
	</g>
	<g id="XMLID_25_">
		<g id="XMLID_83_">
			<path id="XMLID_87_" d="M178.5,723.9c-18.3,6.6-35.2,16.2-50.2,28.5c-0.9,0.7-0.8,2.1-0.4,3c1.8,3.8,6.1,3.9,9.7,3
				c7.4-1.9,14.4-4.7,22-6.1c15.6-2.8,31.5-3,47.2-3.1c7.6-0.1,15.2-0.2,22.7,1.2c6.1,1.1,22.9,5.6,14,14.2
				c-5.1,4.9-13.3,7.8-19.7,10.6c-7.2,3.1-14.6,5.7-22.1,7.9c-17,4.9-34.6,7.3-52.3,7.3c-3.2,0-3.2,5,0,5c16.6,0,33.2-2,49.3-6.3
				c15.3-4,32.3-9.6,45.4-18.7c4.2-2.9,8.7-7.8,6.9-13.4c-1.8-5.6-8.5-8.2-13.5-9.8c-15.3-5-33.3-3.2-49.2-2.7
				c-9.4,0.3-18.9,1.1-28.2,2.7c-4.8,0.8-9.6,1.9-14.3,3.2c-1.9,0.6-12.1,5.4-13.5,2.5c-0.1,1-0.3,2-0.4,3
				c14.3-11.8,30.5-20.9,48-27.2C182.8,727.7,181.5,722.9,178.5,723.9L178.5,723.9z"/>
		</g>
	</g>
	<g id="XMLID_32_">
		<g id="XMLID_90_">
			<path id="XMLID_94_" d="M253.2,623.5c11.9,44,24.5,87.7,38,131.2c0.9,3.1,5.8,1.8,4.8-1.3c-13.4-43.5-26.1-87.3-38-131.2
				C257.2,619,252.4,620.3,253.2,623.5L253.2,623.5z"/>
		</g>
	</g>
	<g id="XMLID_39_">
		<g id="XMLID_97_">
			<path id="XMLID_101_" d="M365.2,694.7c-16.5,6.3-32.1,14.6-46.4,24.9c-5.7,4.1-12.1,7.8-12.3,15.5c-0.2,7.4,1.3,15.7,5,22.2
				c3.2,5.7,8.7,10.7,15.2,12.1c7.4,1.6,14.6-1.5,20.8-5.3c11.4-7,20.4-17.8,25.8-30c6.3-14.3,7.9-30.3,3.8-45.4
				c-0.6-2.3-4.2-2.4-4.8,0c-3.6,14.5,0.5,29.4,4.2,43.5c4.1,15.5,9.3,30.8,15.3,45.7c1.2,2.9,6,1.7,4.8-1.3
				c-5.5-13.8-10.3-27.8-14.3-42.1c-3.9-14.2-8.9-29.8-5.2-44.5c-1.6,0-3.2,0-4.8,0c3.9,14.2,2.3,29.5-3.9,42.8
				c-6.1,13.3-17.8,26.8-32.2,31.2c-9.7,3-18-3.1-21.7-11.9c-1.8-4.4-2.6-9.1-2.9-13.8c-0.2-2.9-0.5-5.5,1.6-7.9
				c1.4-1.7,3.6-3,5.3-4.3c14.7-11,30.9-19.9,48-26.5C369.5,698.4,368.2,693.6,365.2,694.7L365.2,694.7z"/>
		</g>
	</g>
	<g id="XMLID_46_">
		<g id="XMLID_104_">
			<path id="XMLID_108_" d="M398.1,696.1c6.6,27.8,13.2,55.7,19.8,83.5c0.7,3.1,5.5,1.8,4.8-1.3c-1.9-9.4-3.9-18.7-5.8-28.1
				c-2-9.4-4.3-18.9-4.5-28.6c-0.3-14.7,8-36.3,26.4-34.3c19.3,2.1,23.3,26,25.5,41.2c2.9,19.8,5.3,39.7,7.1,59.6
				c0.3,3.2,5.3,3.2,5,0c-1.7-17.8-3.7-35.5-6.2-53.2c-2.1-15-3.3-32.2-14.3-43.9c-8.7-9.2-22-11.8-32.8-4.5
				c-11.6,7.8-16,21.5-15.7,35c0.2,9.5,2.4,18.8,4.3,28c2.1,10,4.1,20,6.2,29.9c1.6-0.4,3.2-0.9,4.8-1.3
				c-6.6-27.8-13.2-55.7-19.8-83.5C402.2,691.7,397.3,693,398.1,696.1L398.1,696.1z"/>
		</g>
	</g>
	<g id="XMLID_53_">
		<g id="XMLID_111_">
			<path
				id="XMLID_115_"
				d="M531.1,678.1c-9.7-1.5-20.7-2.6-29.8,1.9c-11.4,5.6-12.5,18.7-13.7,30c-0.8,7.1-1.1,14.2-1,21.3
				c0.1,6.3-0.1,13.4,1.8,19.5c3.3,10.5,13.8,11.8,22.9,8.2c10.4-4.1,20.3-12.5,28.1-20.4c8-8.1,14.5-18,16.5-29.4
				c4.9-27.6-13-53.7-25.9-76.5c-17.2-30.5-34.5-61.1-51.7-91.6c-1.6-2.8-5.9-0.3-4.3,2.5c12.7,22.5,25.4,45,38,67.4
				c6.5,11.5,13,23.1,19.5,34.6c5.9,10.5,12,21.1,15.9,32.5c3.9,11.2,5.8,23.3,2.4,34.8c-3.1,10.3-10.1,18.9-18,26
				c-7.2,6.5-16.2,14.3-25.9,16.6c-15.6,3.7-14.4-16-14.4-26.2c0-7.1,0.4-14.3,1.2-21.3c0.8-6.6,1.2-14.9,6-20.1
				c7.4-8.1,21.2-6.5,30.9-5C532.9,683.4,534.2,678.6,531.1,678.1L531.1,678.1z"
			/>
		</g>
	</g>
</svg>
