<?xml version="1.0" encoding="utf-8"?>
<!-- Generator: Adobe Illustrator 19.0.0, SVG Export Plug-In . SVG Version: 6.00 Build 0)  -->
<svg version="1.1" xmlns="http://www.w3.org/2000/svg" xmlns:xlink="http://www.w3.org/1999/xlink" x="0px" y="0px"
	 viewBox="0 0 595.3 841.9" style="enable-background:new 0 0 595.3 841.9;" xml:space="preserve">
<style type="text/css">
	.st0{display:none;}
	.st1{display:inline;fill:#CE726E;}
</style>
<g id="Layer_4">
	<g id="XMLID_392_">
		<g id="XMLID_404_">
			<path data-start="0" data-duration="10" id="XMLID_408_" d="M80.3,431.7c1.4,9.9,3.6,19.7,6.7,29.3c1.5,4.5,3.2,9,5,13.3c1,2.2,2,4.5,3,6.6c0.7,1.4,1.5,3.1,2.9,4
				c6.5,3.8,12.2-9.7,13.7-13.9c3.2-8.9,4.3-18.7,5.6-28c1.6-11.9,2.5-23.9,2.9-36c-0.3,0-0.7,0-1,0c0,16.4-0.1,32.9-0.1,49.3
				c0,6.5,0.4,13.5,4.3,19c2.9,4.2,7.6,7.1,12.8,6.5c13.7-1.6,16.3-17.7,17.5-28.7c1.7-15.9,2.6-31.9,2.7-47.9
				c0.1-18.3-0.8-36.6-2.3-54.8c-0.1-0.6-1-0.6-1,0c2.5,29.3,3.2,58.8,1,88.1c-0.5,7.2-1.1,14.4-2.2,21.5
				c-1.1,6.8-3.3,13.9-9.1,18.1c-5.6,4-12.6,3.5-17.2-1.6c-4.7-5.2-5.3-12.5-5.4-19.2c-0.2-16.7,0-33.5,0.1-50.2c0-0.6-1-0.6-1,0
				c-0.6,18.4-2.2,37-6,55c-0.9,4.1-2,8.1-3.7,12c-0.8,1.7-1.7,3.4-2.7,4.9c-1.2,1.8-3.4,5.1-5.8,5.4c-3.3,0.4-4.5-2.7-5.6-5.1
				c-1-2.2-2-4.3-2.9-6.5c-1.7-4.1-3.2-8.2-4.6-12.4c-3.1-9.4-5.2-19-6.6-28.8C81.2,430.8,80.2,431.1,80.3,431.7L80.3,431.7z"/>
		</g>
	</g>
	<g id="XMLID_393_">
		<g id="XMLID_420_">
			<path id="XMLID_425_" d="M182.4,362.7c4.7,30.6,7.2,61.6,7.7,92.5c0,0.5,0.8,0.7,1,0.1c4.5-18.2,12.1-41.7,33.5-45.6
				c5-0.9,10.8-0.4,14.9,3c3.9,3.3,5.4,8.5,6.5,13.4c2.4,11,4.1,22.2,5.4,33.4c1.5,12.7,2.3,25.4,2.5,38.1c0,0.6,1,0.6,1,0
				c-0.2-12.6-1-25.1-2.5-37.6c-1.4-12-3-24.3-5.9-36c-1.1-4.4-2.8-8.9-6.3-11.9c-3.4-2.9-7.9-3.9-12.3-3.7
				c-9.6,0.4-18.1,6.2-23.9,13.5c-7.6,9.5-10.9,21.6-13.8,33.2c0.3,0,0.6,0.1,1,0.1c-0.5-31.1-3-62.1-7.7-92.8
				C183.3,361.8,182.3,362.1,182.4,362.7L182.4,362.7z"/>
		</g>
	</g>
	<g id="XMLID_394_">
		<g id="XMLID_437_">
			<path id="XMLID_441_" d="M317.6,395.8c-11.4,0.5-22.5,5.5-30.3,13.8c-7.9,8.4-12.1,19.9-11.7,31.4c0.1,3,0.5,5.9,1.2,8.8
				c0.6,2.4,1.2,5.9,3.1,7.6c1.6,1.5,3.9,1.5,6,1.4c2.6-0.1,5.2-0.3,7.8-0.8c10.2-2,19.6-7.3,26.9-14.6c8.4-8.4,14-19.3,15.1-31.2
				c-0.3,0-0.7,0-1,0c0.3,18.9,0.6,37.9,0.9,56.8c0,0.6,1,0.6,1,0c-0.3-18.9-0.6-37.9-0.9-56.8c0-0.6-0.9-0.6-1,0
				c-1.8,19.5-16.2,36.6-34.5,43c-4.6,1.6-9.4,2.5-14.2,2.6c-1.5,0-3.5,0.2-4.8-0.8c-1.5-1.2-2.1-3.1-2.6-4.8
				c-0.9-2.9-1.5-5.8-1.8-8.8c-1-10.9,2.2-22.3,9.2-30.8c7.7-9.5,19.5-15.3,31.7-15.8C318.2,396.7,318.2,395.7,317.6,395.8
				L317.6,395.8z"/>
		</g>
	</g>
	<g id="XMLID_395_">
		<g id="XMLID_444_">
			<path id="XMLID_448_" d="M384.6,310.1c3.6,54.2,7.2,108.3,10.9,162.5c1,15.3,2,30.6,3.1,45.9c0,0.6,1,0.6,1,0
				c-3.6-54.2-7.2-108.3-10.9-162.5c-1-15.3-2-30.6-3.1-45.9C385.6,309.5,384.6,309.5,384.6,310.1L384.6,310.1z"/>
		</g>
	</g>
	<g id="XMLID_396_">
		<g id="XMLID_451_">
			<path id="XMLID_455_" d="M358.1,385.6c23.5,0,47,0,70.5,0c0.6,0,0.6-1,0-1c-23.5,0-47,0-70.5,0
				C357.4,384.6,357.4,385.6,358.1,385.6L358.1,385.6z"/>
		</g>
	</g>
	<g id="XMLID_397_">
		<g id="XMLID_458_">
			<path id="XMLID_462_" d="M461.5,420.3c-8.6,0.5-17.1,2.4-25.1,5.8c-6.3,2.7-14.7,6-15.5,13.7c-0.5,4.6-0.3,9.4-0.3,14
				c-0.1,3.2-0.6,7.1,1.6,9.7c2,2.4,5.3,3.1,8.1,3.7c5,1,10,1.9,15,2.8c9.6,1.7,19.3,3.4,29,4.9c9,1.4,18.1,2.8,26.9,5.3
				c4.5,1.3,9,2.9,13.3,4.9c1.9,0.9,4.5,1.9,5.7,3.8c2,3.2-1.5,5.3-3.8,6.9c-7.2,4.7-15.7,7-24,8.6c-21.9,4.1-44.4,5.5-66.6,4.8
				c-0.6,0-0.6,1,0,1c19.6,0.6,39.2-0.5,58.5-3.5c8.3-1.3,16.7-2.7,24.6-5.9c3.6-1.5,7-3.3,10-5.6c2-1.5,3.9-3.4,2.7-6
				c-1.4-3.2-5.6-4.6-8.6-5.9c-3.9-1.7-7.8-3.1-11.9-4.2c-8.8-2.5-17.9-3.8-26.9-5.3c-9.7-1.5-19.4-3.2-29-4.9
				c-4.9-0.9-9.9-1.8-14.8-2.8c-4.8-1-8.6-2.7-8.7-8.2c-0.1-5.3,0.1-10.8,0.3-16.1c0.1-3,0.7-5.6,2.9-7.8c1.8-1.7,4.1-3,6.3-4.1
				c9.4-5.1,19.9-8,30.7-8.6C462.2,421.2,462.2,420.2,461.5,420.3L461.5,420.3z"/>
		</g>
	</g>
	<g id="XMLID_398_">
		<g id="XMLID_465_">
			<path id="XMLID_469_" d="M168.7,599.6c-0.6,11-0.5,22,0.3,32.9c0.6,7.8,1,16.6,5.2,23.5c3.6,5.8,10.2,8.2,16.4,4.8
				c8-4.4,10.1-14.7,11.8-22.9c2.5-11.6,3.5-23.5,3.1-35.3c0-0.6-1-0.6-1,0c0.3,9.6-0.2,19.1-1.8,28.6c-0.7,4.5-1.7,8.9-2.9,13.3
				c-1.2,4.3-2.6,8.8-5.6,12.2c-2.9,3.3-7.5,5.7-12,4.6c-3.4-0.8-5.8-3.3-7.5-6.2c-3.9-6.8-4.2-15.3-4.8-23
				c-0.9-10.8-0.9-21.6-0.3-32.5C169.8,598.9,168.8,598.9,168.7,599.6L168.7,599.6z"/>
		</g>
	</g>
	<g id="XMLID_400_">
		<g id="XMLID_472_">
			<path id="XMLID_476_" d="M281,611.6c0,15.8,0.1,31.5,0.1,47.3c0,7.8,0,15.6,0,23.4c0,7,1.2,15.4-2.6,21.7
				c0.3,0.1,0.6,0.2,0.9,0.3c-5.3-40.4-2.1-82.1,9.7-121.1c0.7-2.4,1.5-4.6,3.5-6.3c2.1-1.8,5-2.6,7.7-2.9c4.4-0.5,8.9,0.5,12.9,2.4
				c8.4,4,13.9,12,17.2,20.5c1.6,4.1,2.8,8.4,3.6,12.7c1.1,5.4,1.2,10.8-2.8,15c-3.2,3.3-7.8,5.6-11.9,7.5c-4.2,2-8.7,3.6-13.2,4.8
				c-20.1,5.6-41.4,4.8-62,3.8c-0.6,0-0.6,1,0,1c19.9,0.9,40.4,1.7,59.9-3.2c8.9-2.2,18.2-5.6,25.6-11.2c3.4-2.6,5.8-5.9,6.2-10.3
				c0.4-4.7-1-9.7-2.3-14.2c-2.4-8.7-6.5-17.5-13.6-23.4c-6.2-5.1-14.7-8.1-22.6-6c-4,1.1-6.9,3.3-8.3,7.2
				c-1.9,5.1-3.1,10.5-4.4,15.8c-2.6,10.6-4.6,21.3-6,32.1c-3.3,25.1-3.3,50.6,0,75.7c0.1,0.5,0.6,0.7,0.9,0.3
				c3.4-5.7,2.7-12.8,2.7-19.2c0-8.1,0-16.3,0-24.4c0-16.4-0.1-32.9-0.1-49.3C282,610.9,281,610.9,281,611.6L281,611.6z"/>
		</g>
	</g>
</g>
</svg>
